<svg width="150" height="46" viewBox="0 0 150 46" fill="none" xmlns="http://www.w3.org/2000/svg">
<path d="M59.601 15.923C61.3797 15.923 62.9053 16.245 64.178 16.889C65.4507 17.533 66.4243 18.4607 67.099 19.672C67.7737 20.8833 68.111 22.3247 68.111 23.996C68.111 25.652 67.7737 27.0857 67.099 28.297C66.4243 29.493 65.4507 30.413 64.178 31.057C62.9053 31.6857 61.3797 32 59.601 32H54.84V15.923H59.601ZM59.601 30.666C61.8397 30.666 63.5417 30.0833 64.707 28.918C65.8877 27.7373 66.478 26.0967 66.478 23.996C66.478 21.88 65.8877 20.2317 64.707 19.051C63.5417 17.855 61.8397 17.257 59.601 17.257H56.45V30.666H59.601Z" fill="#37806B"/>
<path d="M72.4593 17.234V23.237H78.5543V24.571H72.4593V30.666H79.2443V32H70.8493V15.9H79.2443V17.234H72.4593Z" fill="#37806B"/>
<path d="M81.4506 23.95C81.4506 22.3707 81.7956 20.96 82.4856 19.718C83.1756 18.4607 84.1186 17.487 85.3146 16.797C86.5106 16.0917 87.8446 15.739 89.3166 15.739C91.1106 15.739 92.644 16.1683 93.9166 17.027C95.2046 17.8703 96.14 19.0663 96.7226 20.615H94.8366C94.3766 19.5263 93.6713 18.6753 92.7206 18.062C91.7853 17.4487 90.6506 17.142 89.3166 17.142C88.136 17.142 87.0703 17.418 86.1196 17.97C85.1843 18.522 84.4483 19.3193 83.9116 20.362C83.375 21.3893 83.1066 22.5853 83.1066 23.95C83.1066 25.3147 83.375 26.5107 83.9116 27.538C84.4483 28.5653 85.1843 29.355 86.1196 29.907C87.0703 30.459 88.136 30.735 89.3166 30.735C90.6506 30.735 91.7853 30.436 92.7206 29.838C93.6713 29.2247 94.3766 28.3813 94.8366 27.308H96.7226C96.14 28.8413 95.2046 30.0297 93.9166 30.873C92.6286 31.7163 91.0953 32.138 89.3166 32.138C87.8446 32.138 86.5106 31.793 85.3146 31.103C84.1186 30.3977 83.1756 29.424 82.4856 28.182C81.7956 26.94 81.4506 25.5293 81.4506 23.95Z" fill="#37806B"/>
<path d="M107.222 23.697C108.126 23.8657 108.893 24.3257 109.522 25.077C110.15 25.8283 110.465 26.7023 110.465 27.699C110.465 28.5117 110.258 29.2477 109.844 29.907C109.445 30.551 108.855 31.0647 108.073 31.448C107.291 31.816 106.355 32 105.267 32H99.7008V15.923H105.106C106.731 15.923 107.965 16.2987 108.809 17.05C109.667 17.8013 110.097 18.775 110.097 19.971C110.097 20.9677 109.828 21.7803 109.292 22.409C108.755 23.0223 108.065 23.4517 107.222 23.697ZM101.311 23.03H105.06C106.148 23.03 106.984 22.777 107.567 22.271C108.165 21.7497 108.464 21.0367 108.464 20.132C108.464 19.2427 108.165 18.545 107.567 18.039C106.984 17.533 106.125 17.28 104.991 17.28H101.311V23.03ZM105.152 30.643C106.317 30.643 107.222 30.367 107.866 29.815C108.525 29.263 108.855 28.504 108.855 27.538C108.855 26.572 108.51 25.8053 107.82 25.238C107.145 24.6553 106.233 24.364 105.083 24.364H101.311V30.643H105.152Z" fill="#37806B"/>
<path d="M122.509 28.182H115.195L113.792 32H112.09L117.955 16.13H119.772L125.614 32H123.912L122.509 28.182ZM122.026 26.848L118.852 18.154L115.678 26.848H122.026Z" fill="#37806B"/>
<path d="M132.844 32.161C131.786 32.161 130.851 31.977 130.038 31.609C129.241 31.241 128.612 30.7273 128.152 30.068C127.692 29.4087 127.447 28.6727 127.416 27.86H129.118C129.195 28.642 129.54 29.332 130.153 29.93C130.767 30.5127 131.664 30.804 132.844 30.804C133.933 30.804 134.792 30.528 135.42 29.976C136.064 29.4087 136.386 28.6957 136.386 27.837C136.386 27.147 136.21 26.595 135.857 26.181C135.505 25.7517 135.068 25.4373 134.546 25.238C134.025 25.0233 133.304 24.7933 132.384 24.548C131.311 24.2567 130.46 23.973 129.831 23.697C129.203 23.421 128.666 22.9917 128.221 22.409C127.777 21.8263 127.554 21.0367 127.554 20.04C127.554 19.212 127.769 18.476 128.198 17.832C128.628 17.1727 129.233 16.659 130.015 16.291C130.797 15.923 131.694 15.739 132.706 15.739C134.194 15.739 135.39 16.107 136.294 16.843C137.214 17.5637 137.743 18.499 137.881 19.649H136.133C136.026 18.9897 135.666 18.407 135.052 17.901C134.439 17.3797 133.611 17.119 132.568 17.119C131.602 17.119 130.797 17.3797 130.153 17.901C129.509 18.407 129.187 19.1047 129.187 19.994C129.187 20.6687 129.364 21.213 129.716 21.627C130.069 22.041 130.506 22.3553 131.027 22.57C131.564 22.7847 132.285 23.0147 133.189 23.26C134.232 23.5513 135.075 23.8427 135.719 24.134C136.363 24.41 136.908 24.8393 137.352 25.422C137.797 26.0047 138.019 26.7867 138.019 27.768C138.019 28.5193 137.82 29.2323 137.421 29.907C137.023 30.5817 136.432 31.126 135.65 31.54C134.868 31.954 133.933 32.161 132.844 32.161Z" fill="#37806B"/>
<path d="M142.51 17.234V23.237H148.605V24.571H142.51V30.666H149.295V32H140.9V15.9H149.295V17.234H142.51Z" fill="#37806B"/>
<path fill-rule="evenodd" clip-rule="evenodd" d="M0 0H23C27.4183 0 31 3.58172 31 8C31 11.1202 29.2137 13.8232 26.608 15.1421C34.1712 16.1705 40 22.6546 40 30.5C40 39.0604 33.0604 46 24.5 46H10L0 31V0ZM1.20185 31L10 44.1972V31H1.20185ZM11 16H23C26.866 16 30 19.134 30 23C30 26.866 26.866 30 23 30H11V16ZM23 31H11V45H24.5C32.5081 45 39 38.5081 39 30.5C39 23.4635 33.9879 17.5977 27.3391 16.2778C29.5421 17.7027 31 20.1811 31 23C31 27.4183 27.4183 31 23 31ZM10 30H1V1.80278L10 15.3028V30ZM23 15H11.0399L1.85235 1H23C26.866 1 30 4.13401 30 8C30 11.866 26.866 15 23 15Z" fill="#B0855B"/>
</svg>
