<svg width="32" height="32" viewBox="0 0 32 32" fill="none" xmlns="http://www.w3.org/2000/svg">
<path d="M0 31V25.6562L1.14286 25.2812C4.7619 23.4688 6.8254 20.4688 7.33333 16.2812L7.42857 14.7813H0.47619V1H14.2857V13.4688C14.2857 16.7812 13.5873 19.6875 12.1905 22.1875C9.33333 27.1875 5.26984 30.125 0 31ZM17.7143 31V25.6562L18.8571 25.2812C22.4762 23.4688 24.5397 20.4688 25.0476 16.2812L25.1429 14.7813H18.1905V1H32V13.4688C32 16.7812 31.3016 19.6875 29.9048 22.1875C27.0476 27.1875 22.9841 30.125 17.7143 31Z" fill="#B0855B"/>
</svg>
