<svg width="40" height="40" viewBox="0 0 40 40" fill="none" xmlns="http://www.w3.org/2000/svg">
<path d="M7.5 7.5C5.44375 7.5 3.75 9.19375 3.75 11.25V19.725C2.9875 20.415 2.5 21.4025 2.5 22.5V33.75H8.75V31.25H31.25V33.75H37.5V22.5C37.5 21.4025 37.0125 20.415 36.25 19.725V11.25C36.25 9.19375 34.5562 7.5 32.5 7.5H7.5ZM7.5 10H32.5C33.1938 10 33.75 10.5562 33.75 11.25V18.75H31.25V17.5C31.25 15.4438 29.5562 13.75 27.5 13.75H22.5C21.5412 13.75 20.6662 14.125 20 14.725C19.3164 14.1012 18.4254 13.7537 17.5 13.75H12.5C10.4438 13.75 8.75 15.4438 8.75 17.5V18.75H6.25V11.25C6.25 10.5562 6.80625 10 7.5 10ZM12.5 16.25H17.5C18.1938 16.25 18.75 16.8062 18.75 17.5V18.75H11.25V17.5C11.25 16.8062 11.8062 16.25 12.5 16.25ZM22.5 16.25H27.5C28.1938 16.25 28.75 16.8062 28.75 17.5V18.75H21.25V17.5C21.25 16.8062 21.8062 16.25 22.5 16.25ZM6.25 21.25H33.75C34.4438 21.25 35 21.8062 35 22.5V31.25H33.75V28.75H6.25V31.25H5V22.5C5 21.8062 5.55625 21.25 6.25 21.25Z" fill="black"/>
</svg>
