<svg width="40" height="40" viewBox="0 0 40 40" fill="none" xmlns="http://www.w3.org/2000/svg">
<path d="M20 0C17.8277 0 16.1548 1.8124 16.1548 3.9795C16.1548 6.0668 16.1402 7.89307 16.1402 7.89307H12.2778C12.2051 7.89307 12.1348 7.9011 12.0654 7.9126H10.9912V11.665H29.0088V7.9126H27.9345C27.8652 7.9011 27.7948 7.89307 27.7221 7.89307H23.8599C23.8599 7.89307 23.9038 6.23987 23.9038 3.9917C23.9038 1.90437 22.1723 0 20 0ZM5.83984 3.80617V40H34.1601V3.80617H25.188V6.42823H31.5674V37.3731H8.43508V6.42823H14.812V3.80617H5.83984ZM20 3.85497C20.7117 3.85497 21.2866 4.42763 21.2866 5.1367C21.2866 5.84707 20.7117 6.42087 20 6.42087C19.2883 6.42087 18.7134 5.84703 18.7134 5.1367C18.7134 4.42767 19.2883 3.85497 20 3.85497ZM10.9912 14.209V15.4932H12.2778V14.209H10.9912ZM14.8535 14.2334V15.5176H29.0088V14.2334H14.8535ZM10.9912 19.0527V20.3369H12.2778V19.0527H10.9912ZM14.8535 19.0771V20.3638H29.0088V19.0771H14.8535ZM10.9912 23.8965V25.1807H12.2778V23.8965H10.9912ZM14.8535 23.9233V25.2075H29.0088V23.9233H14.8535V23.9233ZM10.9912 28.7427V30.0268H12.2778V28.7427H10.9912ZM14.8535 28.7695V30.0537H29.0088V28.7695H14.8535ZM10.9912 33.5864V34.8706H12.2778V33.5864H10.9912V33.5864ZM14.8535 33.6133V34.8974H29.0088V33.6133H14.8535Z" fill="black"/>
</svg>
